<svg width="255" height="229" viewBox="0 0 255 229" fill="none" xmlns="http://www.w3.org/2000/svg">
<path d="M225.755 108.851C223.699 102.626 219.788 97.0669 215.39 91.9782C213.947 90.3093 212.371 88.7251 210.862 87.0985C201.036 77.4025 188.575 69.623 174.159 64.2077C170.795 62.9441 167.255 61.9182 163.803 60.7734C160.014 59.8486 156.304 58.7834 152.435 57.9991C135.934 54.6541 118.091 53.5629 99.9981 55.0636C95.5829 55.4298 91.1389 56.1281 86.7093 56.6604C82.5085 57.4957 78.2865 58.1425 74.1069 59.1662C63.0855 61.8658 52.1118 65.9877 42.8804 72.3743C35.4674 77.5029 34.6793 79.2993 29.2922 85.5917C27.8283 88.1793 26.0548 90.7128 24.9005 93.3544C19.3718 106.007 20.8239 118.964 25.4828 130.041C26.854 133.301 28.8015 136.317 30.4609 139.456C32.8113 142.549 34.9001 145.799 37.5121 148.736C45.6829 157.925 56.2654 165.56 68.2899 171.549C78.7094 176.738 82.4079 177.467 93.9299 181.163C98.4131 182.151 102.803 183.313 107.379 184.127C123.515 186.994 141.216 187.735 158.853 184.817C162.567 184.202 166.259 183.207 169.962 182.402C173.312 181.272 176.743 180.355 180.012 179.012C189.074 175.29 197.111 169.828 202.575 162.813C207.783 156.128 207.864 153.703 210.449 146.384C210.849 142.974 211.617 139.522 211.65 136.156C211.731 127.695 209.988 119.606 207.211 111.891C203.512 101.615 199.01 93.572 192.31 84.6117C188.827 79.9531 184.705 75.6691 180.902 71.1979C168.415 58.1738 153.62 46.7984 137.017 37.0902C131.887 34.0901 126.398 31.4503 121.088 28.6304C121.048 28.6122 121.186 28.4534 121.226 28.4715C126.54 31.2934 132.032 33.935 137.167 36.9372C153.782 46.6524 168.589 58.0361 181.086 71.0697C184.892 75.5447 188.964 79.8625 192.504 84.4947C198.348 92.1419 204.986 102.772 208.917 111.441C212.385 119.091 215.006 127.411 215.567 135.977C215.801 139.547 215.209 143.248 215.03 146.883C212.528 155.023 212.62 157.801 206.787 165.293C200.677 173.14 191.372 179.112 181.154 182.977C177.619 184.314 173.93 185.166 170.318 186.261C166.424 186.98 162.532 187.892 158.636 188.417C140.655 190.84 122.468 189.702 106.143 186.508C101.526 185.605 97.0984 184.363 92.5761 183.29C80.6885 179.385 77.4127 178.77 66.6391 173.37C54.4218 167.247 43.6118 159.568 35.0269 150.389C32.2665 147.437 29.9898 144.185 27.4712 141.083C25.5652 137.743 23.3668 134.534 21.7532 131.063C16.3251 119.39 14.2297 105.632 20.1262 92.0451C21.3988 89.1131 23.401 86.309 25.0384 83.4409C31.2387 76.4175 31.9261 74.6218 40.4348 69.044C50.4287 62.4925 62.1663 58.4473 73.8709 55.8649C78.1805 54.914 82.5176 54.3396 86.8409 53.577C91.3717 53.0874 95.9181 52.4458 100.433 52.1082C118.859 50.7304 137.141 51.6494 154.146 54.7337C158.158 55.4614 162.016 56.4766 165.95 57.348C169.562 58.4399 173.261 59.4082 176.786 60.6237C191.984 65.8645 205.088 73.6517 215.997 83.1386C217.707 84.7199 219.465 86.2682 221.129 87.8825C226.273 92.8729 230.789 98.2787 235.097 103.793C236.146 105.277 226.804 110.335 225.755 108.851Z" fill="#FF0000"/>
</svg>
